<svg width="273" height="101" viewBox="0 0 273 101" fill="none" xmlns="http://www.w3.org/2000/svg">
<rect width="272.606" height="100.606" fill="#0A0E1C"></rect>
<g clip-path="url(#clip0_1308_1868)">
<path d="M47.8361 71.1152H31.2847C30.5751 71.1152 29.9999 70.5414 29.9999 69.8318V46.1928C29.9999 45.0153 31.43 44.4765 32.1833 45.3816C37.5862 51.8736 45.1 62.333 48.946 69.2819C49.4085 70.1176 48.7912 71.1152 47.8361 71.1152Z" fill="white"></path>
<path d="M64.6905 71.1152H53.5204C53.0338 71.1152 52.5907 70.8411 52.3657 70.4095C48.2766 62.566 37.7983 47.2898 30.3354 39.0888C30.118 38.8499 29.9999 38.5434 29.9999 38.2204V31.2849C29.9999 30.5753 30.5736 30.0001 31.2832 30.0001H36.569C36.8886 30.0001 37.1839 30.1041 37.4142 30.3258C44.1629 36.8235 62.3232 63.7802 65.4985 69.9434C65.8235 70.5742 65.4002 71.1152 64.6905 71.1152Z" fill="white"></path>
<path d="M71.115 52.1761C71.1149 55.8457 71.1149 64.4405 71.115 69.7806C71.115 71.0772 69.4076 71.5643 68.7206 70.4648C62.675 60.7881 50.0729 41.0873 42.827 32.2137C42.1185 31.3461 42.7356 30.0001 43.8557 30.0001H55.0494C55.4565 30.0001 55.8335 30.1848 56.0753 30.5123C58.17 33.3497 68.3393 47.1687 70.9483 51.5569C71.0626 51.7491 71.115 51.9524 71.115 52.1761Z" fill="white"></path>
<path d="M69.8302 30.0001H61.3842C60.3433 30.0001 59.7344 31.1731 60.3335 32.0243L68.7794 44.0265C69.5014 45.0525 71.115 44.5417 71.115 43.2871V31.2849C71.115 30.5753 70.5398 30.0001 69.8302 30.0001Z" fill="white"></path>
<path d="M99.1223 70.5681H91.6728L105.236 30.5472H113.852L127.434 70.5681H119.985L116.787 60.6996H102.301L99.1223 70.5681ZM104.183 54.8763H114.905L109.695 38.7546H109.394L104.183 54.8763Z" fill="white"></path>
<path d="M131.979 70.5681V30.5472H138.958V64.4907H155.926V70.5681H131.979Z" fill="white"></path>
<path d="M161.454 70.5681V30.5472H175.901C184.762 30.5472 189.484 36.1556 189.484 43.7963C189.484 51.4956 184.705 57.0454 175.807 57.0454H168.433V70.5681H161.454ZM168.433 51.0853H174.867C180.059 51.0853 182.373 48.0563 182.373 43.7963C182.373 39.5363 180.059 36.6051 174.829 36.6051H168.433V51.0853Z" fill="white"></path>
<path d="M201.995 30.5472V70.5681H195.016V30.5472H201.995Z" fill="white"></path>
<path d="M242 44.0503H234.964C234.156 39.2627 230.487 36.5074 225.803 36.5074C219.501 36.5074 215.062 41.5295 215.062 50.5576C215.062 59.7421 219.539 64.6079 225.784 64.6079C230.393 64.6079 234.08 61.9698 234.964 57.2799L242 57.319C240.928 64.9597 234.852 71.1152 225.69 71.1152C215.532 71.1152 208.045 63.4745 208.045 50.5576C208.045 37.6212 215.626 30.0001 225.69 30.0001C234.231 30.0001 240.815 35.159 242 44.0503Z" fill="white"></path>
</g>
<defs>
<clipPath id="clip0_1308_1868">
<rect width="212" height="40" fill="white" transform="translate(30.303 30.303)"></rect>
</clipPath>
</defs>
</svg>