<svg width="381" height="50" viewBox="0 0 381 50" fill="none" xmlns="http://www.w3.org/2000/svg">
<g clip-path="url(#clip0_5423_1089)">
<path d="M91.611 45.5443C87.3293 45.5443 83.991 44.6371 81.5962 42.8229C79.2376 40.9723 77.7136 38.0331 77.0242 34.0054H81.9227V34.2231C81.9227 36.2914 82.6847 38.0331 84.2087 39.4483C85.769 40.8634 88.2365 41.571 91.611 41.571C94.659 41.571 97.0176 41.0267 98.6867 39.9381C100.392 38.8133 101.245 37.2167 101.245 35.1484V34.713C101.245 33.189 100.737 32.0097 99.7209 31.1751C98.7049 30.3043 96.9813 29.6149 94.5502 29.1069L86.658 27.5829C83.3923 26.8571 80.9793 25.7323 79.419 24.2083C77.8587 22.6843 77.0786 20.5797 77.0786 17.8946C77.0786 14.3749 78.3123 11.6716 80.7797 9.78471C83.2835 7.86157 86.8032 6.9 91.3389 6.9C95.5843 6.9 98.8682 7.82528 101.19 9.67586C103.549 11.4901 105.073 14.4111 105.762 18.4389H100.918V18.2211C100.918 16.1891 100.156 14.4656 98.6323 13.0504C97.1446 11.599 94.7135 10.8733 91.3389 10.8733C88.3635 10.8733 86.0412 11.4357 84.372 12.5606C82.7029 13.6491 81.8683 15.2276 81.8683 17.2959V17.7313C81.8683 19.219 82.3763 20.4164 83.3923 21.3236C84.4083 22.1944 86.0956 22.8657 88.4542 23.3374L96.3463 24.8614C99.6846 25.5871 102.134 26.712 103.694 28.236C105.254 29.76 106.035 31.8646 106.035 34.5497C106.035 38.0694 104.783 40.7909 102.279 42.714C99.7753 44.6009 96.2193 45.5443 91.611 45.5443ZM114.442 45V7.44428H119.231V25.188L136.649 7.44428H142.527L122.497 27.6917L122.279 23.3374L143.343 45H137.138L119.231 26.4943V45H114.442ZM159.001 45V29.5967L145.067 7.44428H150.292L161.069 24.8614H161.831L172.662 7.44428H177.67L163.791 29.5967V45H159.001ZM184.069 45V7.44428H200.289C203.555 7.44428 206.095 8.31514 207.909 10.0569C209.76 11.7986 210.685 14.2479 210.685 17.4047C210.685 22.1581 208.599 24.8433 204.426 25.4601V26.2221C208.853 26.839 211.066 29.6511 211.066 34.6586C211.066 37.9243 210.123 40.4643 208.236 42.2786C206.349 44.0929 203.754 45 200.452 45H184.069ZM200.071 41.0811C204.099 41.0811 206.113 39.0673 206.113 35.0396V33.7877C206.113 29.76 204.099 27.7461 200.071 27.7461H188.859V41.0811H200.071ZM199.963 23.9361C203.809 23.9361 205.732 22.013 205.732 18.1667V17.1326C205.732 13.2863 203.809 11.3631 199.963 11.3631H188.859V23.9361H199.963ZM219.578 45V7.44428H235.852C239.154 7.44428 241.712 8.38771 243.527 10.2746C245.377 12.1251 246.303 14.7196 246.303 18.0579C246.303 21.2873 245.377 23.8454 243.527 25.7323C241.712 27.6191 239.172 28.5626 235.907 28.5626H224.313V45H219.578ZM241.731 45L230.137 25.6779H235.417L247.119 45H241.731ZM235.471 24.7526C239.426 24.7526 241.404 22.7206 241.404 18.6566V17.5136C241.404 13.4496 239.426 11.4176 235.471 11.4176H224.313V24.7526H235.471ZM252.095 45V40.9723H257.32V11.472H252.095V7.44428H267.28V11.472H262.055V40.9723H267.28V45H252.095ZM275.067 45V7.44428H289.164C294.498 7.44428 298.508 8.96828 301.193 12.0163C303.878 15.028 305.221 19.7633 305.221 26.2221C305.221 32.681 303.878 37.4344 301.193 40.4824C298.508 43.4941 294.498 45 289.164 45H275.067ZM279.802 40.9723H288.783C292.666 40.9723 295.532 39.9926 297.383 38.0331C299.27 36.0374 300.213 32.7536 300.213 28.1816V24.2627C300.213 19.6907 299.27 16.425 297.383 14.4656C295.532 12.4699 292.666 11.472 288.783 11.472H279.802V40.9723ZM326.884 45.5443C323.69 45.5443 320.933 44.8186 318.61 43.3671C316.324 41.8794 314.546 39.7023 313.276 36.8357C312.043 33.9691 311.426 30.4313 311.426 26.2221C311.426 19.8721 312.859 15.0643 315.726 11.7986C318.592 8.53286 322.602 6.9 327.754 6.9C331.891 6.9 335.284 7.95228 337.933 10.0569C340.581 12.1251 342.305 15.1731 343.103 19.2009H338.205V18.8743C338.205 17.6043 337.86 16.3706 337.171 15.1731C336.481 13.9394 335.356 12.9234 333.796 12.1251C332.272 11.2906 330.24 10.8733 327.7 10.8733C323.854 10.8733 321.023 11.9619 319.209 14.139C317.395 16.2799 316.488 19.6181 316.488 24.1539V28.236C316.488 32.808 317.395 36.1826 319.209 38.3597C321.06 40.5369 323.908 41.6254 327.754 41.6254C331.601 41.6254 334.431 40.6094 336.245 38.5774C338.096 36.5454 339.021 33.697 339.021 30.0321V26.9297L341.253 29.5967H327.972V25.7323H343.648V45H339.457V38.4686H338.695C338.114 39.7749 337.316 40.9723 336.3 42.0609C335.284 43.1131 333.996 43.9659 332.435 44.619C330.911 45.2359 329.061 45.5443 326.884 45.5443ZM352.936 45V7.44428H378.137V11.472H357.726V23.8817H373.946V27.8006H357.726V40.9723H378.354V45H352.936Z" fill="white"></path>
<g clip-path="url(#clip1_5423_1089)">
<mask id="mask0_5423_1089" style="mask-type:luminance" maskUnits="userSpaceOnUse" x="0" y="0" width="50" height="50">
<path d="M49.2449 0H0V49.2449H49.2449V0Z" fill="white"></path>
</mask>
<g mask="url(#mask0_5423_1089)">
<path d="M9.45023 49.2442C20.5726 13.3495 35.6654 7.0632 49.2447 19.3591V46.0498C49.2447 47.814 47.8144 49.2442 46.0502 49.2442H9.45023ZM46.0502 0C47.8144 0 49.2447 1.43024 49.2447 3.19445V16.9154C28.4835 -2.88218 8.15312 17.0916 0.000488281 31.5587V3.19445C0.000523616 1.43024 1.43072 1.22513e-08 3.19494 0H46.0502Z" fill="white"></path>
</g>
</g>
</g>
<defs>
<clipPath id="clip0_5423_1089">
<rect width="381" height="49.2449" fill="white"></rect>
</clipPath>
<clipPath id="clip1_5423_1089">
<rect width="381" height="49.2449" fill="white"></rect>
</clipPath>
</defs>
</svg>