<svg width="413" height="92" viewBox="0 0 413 92" fill="none" xmlns="http://www.w3.org/2000/svg">
<rect width="413" height="92" rx="8" fill="white"></rect>
<g clip-path="url(#clip0_5655_1063)">
<mask id="mask0_5655_1063" style="mask-type:luminance" maskUnits="userSpaceOnUse" x="25" y="25" width="42" height="42">
<path d="M66.0204 25.8571H25.8469V66.0306H66.0204V25.8571Z" fill="white"></path>
</mask>
<g mask="url(#mask0_5655_1063)">
<path d="M33.5563 66.0301C42.6298 36.7475 54.9424 31.6192 66.0202 41.6501V63.4241C66.0202 64.8633 64.8535 66.0301 63.4142 66.0301H33.5563ZM63.4142 25.8571C64.8535 25.8571 66.0202 27.0239 66.0202 28.4631V39.6566C49.0835 23.5059 32.4982 39.8003 25.8474 51.6024V28.4631C25.8474 27.0239 27.0141 25.8571 28.4534 25.8571H63.4142Z" fill="#051413"></path>
</g>
<path d="M100.611 66.2177C96.3294 66.2177 92.9911 65.3106 90.5962 63.4963C88.2377 61.6457 86.7137 58.7066 86.0242 54.6789H90.9228V54.8966C90.9228 56.9649 91.6848 58.7066 93.2088 60.1217C94.7691 61.5369 97.2365 62.2445 100.611 62.2445C103.659 62.2445 106.018 61.7002 107.687 60.6116C109.392 59.4867 110.245 57.8902 110.245 55.8219V55.3865C110.245 53.8625 109.737 52.6832 108.721 51.8486C107.705 50.9777 105.981 50.2883 103.55 49.7803L95.6581 48.2563C92.3924 47.5306 89.9794 46.4057 88.4191 44.8817C86.8588 43.3577 86.0787 41.2532 86.0787 38.568C86.0787 35.0483 87.3124 32.345 89.7798 30.4582C92.2835 28.535 95.8032 27.5735 100.339 27.5735C104.584 27.5735 107.868 28.4987 110.191 30.3493C112.549 32.1636 114.073 35.0846 114.763 39.1123H109.918V38.8946C109.918 36.8626 109.156 35.139 107.632 33.7239C106.145 32.2725 103.714 31.5467 100.339 31.5467C97.3635 31.5467 95.0412 32.1092 93.3721 33.234C91.7029 34.3226 90.8684 35.901 90.8684 37.9693V38.4047C90.8684 39.8925 91.3764 41.0899 92.3924 41.997C93.4084 42.8679 95.0957 43.5392 97.4542 44.0109L105.346 45.5349C108.685 46.2606 111.134 47.3855 112.694 48.9095C114.255 50.4335 115.035 52.538 115.035 55.2232C115.035 58.7429 113.783 61.4643 111.279 63.3875C108.775 65.2743 105.219 66.2177 100.611 66.2177ZM123.442 65.6735V28.1177H128.231V45.8615L145.649 28.1177H151.527L131.497 48.3652L131.279 44.0109L152.343 65.6735H146.138L128.231 47.1677V65.6735H123.442ZM168.001 65.6735V50.2702L154.067 28.1177H159.292L170.069 45.5349H170.831L181.662 28.1177H186.67L172.791 50.2702V65.6735H168.001ZM193.069 65.6735V28.1177H209.289C212.555 28.1177 215.095 28.9886 216.909 30.7303C218.76 32.472 219.685 34.9213 219.685 38.0782C219.685 42.8316 217.599 45.5167 213.426 46.1336V46.8956C217.853 47.5125 220.066 50.3246 220.066 55.332C220.066 58.5977 219.123 61.1377 217.236 62.952C215.349 64.7663 212.754 65.6735 209.452 65.6735H193.069ZM209.071 61.7546C213.099 61.7546 215.113 59.7407 215.113 55.713V54.4612C215.113 50.4335 213.099 48.4196 209.071 48.4196H197.859V61.7546H209.071ZM208.963 44.6096C212.809 44.6096 214.732 42.6865 214.732 38.8402V37.806C214.732 33.9597 212.809 32.0366 208.963 32.0366H197.859V44.6096H208.963ZM228.578 65.6735V28.1177H244.852C248.154 28.1177 250.712 29.0612 252.527 30.948C254.377 32.7986 255.303 35.393 255.303 38.7313C255.303 41.9607 254.377 44.5189 252.527 46.4057C250.712 48.2926 248.172 49.236 244.907 49.236H233.313V65.6735H228.578ZM250.731 65.6735L239.137 46.3513H244.417L256.119 65.6735H250.731ZM244.471 45.426C248.426 45.426 250.404 43.394 250.404 39.33V38.187C250.404 34.123 248.426 32.091 244.471 32.091H233.313V45.426H244.471ZM261.095 65.6735V61.6457H266.32V32.1455H261.095V28.1177H276.28V32.1455H271.055V61.6457H276.28V65.6735H261.095ZM284.067 65.6735V28.1177H298.164C303.498 28.1177 307.508 29.6417 310.193 32.6897C312.878 35.7015 314.221 40.4367 314.221 46.8956C314.221 53.3545 312.878 58.1079 310.193 61.1559C307.508 64.1676 303.498 65.6735 298.164 65.6735H284.067ZM288.803 61.6457H297.783C301.666 61.6457 304.532 60.666 306.383 58.7066C308.27 56.7109 309.213 53.427 309.213 48.855V44.9362C309.213 40.3642 308.27 37.0985 306.383 35.139C304.532 33.1433 301.666 32.1455 297.783 32.1455H288.803V61.6457ZM335.884 66.2177C332.691 66.2177 329.933 65.492 327.611 64.0406C325.325 62.5529 323.547 60.3757 322.277 57.5092C321.043 54.6426 320.426 51.1047 320.426 46.8956C320.426 40.5456 321.859 35.7377 324.726 32.472C327.592 29.2063 331.602 27.5735 336.755 27.5735C340.891 27.5735 344.284 28.6257 346.933 30.7303C349.582 32.7986 351.305 35.8466 352.103 39.8743H347.205V39.5477C347.205 38.2777 346.86 37.044 346.171 35.8466C345.481 34.6129 344.356 33.5969 342.796 32.7986C341.272 31.964 339.24 31.5467 336.7 31.5467C332.854 31.5467 330.024 32.6353 328.209 34.8125C326.395 36.9533 325.488 40.2916 325.488 44.8273V48.9095C325.488 53.4815 326.395 56.856 328.209 59.0332C330.06 61.2103 332.908 62.2989 336.755 62.2989C340.601 62.2989 343.431 61.2829 345.245 59.2509C347.096 57.2189 348.021 54.3705 348.021 50.7056V47.6032L350.253 50.2702H336.972V46.4057H352.648V65.6735H348.457V59.142H347.695C347.114 60.4483 346.316 61.6457 345.3 62.7343C344.284 63.7866 342.996 64.6393 341.435 65.2925C339.911 65.9093 338.061 66.2177 335.884 66.2177ZM361.936 65.6735V28.1177H387.137V32.1455H366.726V44.5552H382.946V48.474H366.726V61.6457H387.354V65.6735H361.936Z" fill="#051413"></path>
</g>
<defs>
<clipPath id="clip0_5655_1063">
<rect width="361" height="40" fill="white" transform="translate(26 26)"></rect>
</clipPath>
</defs>
</svg>