<svg width="212" height="40" viewBox="0 0 212 40" fill="none" xmlns="http://www.w3.org/2000/svg">
<g clip-path="url(#clip0_1331_1045)">
<path d="M17.5331 40.8122H0.981687C0.272085 40.8122 -0.303162 40.2383 -0.303162 39.5288V15.8898C-0.303162 14.7122 1.12695 14.1735 1.88022 15.0786C7.2832 21.5706 14.797 32.0299 18.643 38.9789C19.1055 39.8146 18.4882 40.8122 17.5331 40.8122Z" fill="white"/>
<path d="M34.3875 40.8122H23.2174C22.7307 40.8122 22.2877 40.538 22.0627 40.1065C17.9736 32.263 7.4953 16.9867 0.0323369 8.78578C-0.185051 8.54689 -0.303162 8.24033 -0.303162 7.91734V0.98187C-0.303162 0.272268 0.27059 -0.302979 0.980192 -0.302979H6.26592C6.58555 -0.302979 6.88087 -0.198974 7.11112 0.0227145C13.8598 6.52044 32.0202 33.4772 35.1954 39.6404C35.5204 40.2712 35.0971 40.8122 34.3875 40.8122Z" fill="white"/>
<path d="M40.812 21.873C40.8118 25.5426 40.8119 34.1375 40.8119 39.4776C40.812 40.7741 39.1046 41.2613 38.4176 40.1617C32.372 30.4851 19.7699 10.7843 12.5239 1.91067C11.8155 1.04309 12.4326 -0.302979 13.5526 -0.302979H24.7464C25.1535 -0.302979 25.5304 -0.118234 25.7722 0.209286C27.867 3.04669 38.0363 16.8656 40.6453 21.2538C40.7596 21.446 40.812 21.6494 40.812 21.873Z" fill="white"/>
<path d="M39.5271 -0.302979H31.0812C30.0402 -0.302979 29.4314 0.870017 30.0304 1.72129L38.4764 13.7235C39.1984 14.7495 40.812 14.2386 40.812 12.984V0.98187C40.812 0.272268 40.2367 -0.302979 39.5271 -0.302979Z" fill="white"/>
<path d="M68.8192 40.265H61.3698L74.9331 0.244182H83.5489L97.131 40.265H89.6815L86.4835 30.3966H71.9984L68.8192 40.265ZM73.8796 24.5733H84.6023L79.3915 8.45158H79.0905L73.8796 24.5733Z" fill="white"/>
<path d="M101.676 40.265V0.244182H108.655V34.1876H125.623V40.265H101.676Z" fill="white"/>
<path d="M131.151 40.265V0.244182H145.598C154.459 0.244182 159.18 5.85257 159.18 13.4933C159.18 21.1926 154.402 26.7423 145.504 26.7423H138.13V40.265H131.151ZM138.13 20.7822H144.564C149.756 20.7822 152.07 17.7533 152.07 13.4933C152.07 9.23323 149.756 6.30202 144.526 6.30202H138.13V20.7822Z" fill="white"/>
<path d="M171.692 0.244182V40.265H164.713V0.244182H171.692Z" fill="white"/>
<path d="M211.697 13.7473H204.661C203.853 8.95966 200.184 6.20432 195.5 6.20432C189.198 6.20432 184.759 11.2265 184.759 20.2546C184.759 29.4391 189.236 34.3049 195.481 34.3049C200.09 34.3049 203.777 31.6668 204.661 26.9768L211.697 27.0159C210.625 34.6566 204.549 40.8122 195.387 40.8122C185.229 40.8122 177.742 33.1715 177.742 20.2546C177.742 7.31818 185.323 -0.302979 195.387 -0.302979C203.928 -0.302979 210.512 4.85596 211.697 13.7473Z" fill="white"/>
</g>
<defs>
<clipPath id="clip0_1331_1045">
<rect width="212" height="40" fill="white"/>
</clipPath>
</defs>
</svg>
