<svg width="20" height="20" viewBox="0 0 20 20" fill="none" xmlns="http://www.w3.org/2000/svg">
<mask id="mask0_487_665" style="mask-type:alpha" maskUnits="userSpaceOnUse" x="0" y="0" width="20" height="20">
<rect width="20" height="20" fill="#D9D9D9"/>
</mask>
<g mask="url(#mask0_487_665)">
<path d="M7.36252 20H1C0.447715 20 0 19.5525 0 19.0002V8.64125C0 7.7312 1.07185 7.33361 1.61891 8.06088C3.88388 11.072 6.54471 15.467 8.23237 18.5553C8.59108 19.2117 8.11057 20 7.36252 20Z" fill="#121E1E"/>
<path d="M16 20H11.1107C10.7358 20 10.3946 19.7932 10.2195 19.4617C8.22533 15.6861 3.80403 8.28701 0.270194 4.42269C0.0974742 4.23382 0 3.9897 0 3.73376V1C0 0.447715 0.447246 0 0.999531 0H3.05772C3.30196 0 3.53551 0.0838936 3.71011 0.254673C6.93512 3.40909 14.7578 15.5906 16.6046 19.093C16.8622 19.5815 16.5523 20 16 20Z" fill="#121E1E"/>
<path d="M20 10.2704L20 19.0376C20 20.0405 18.7155 20.4032 18.197 19.5447C15.2475 14.6612 10.1233 6.14055 6.79571 1.78274C6.26283 1.08489 6.76006 0 7.6381 0H12.0171C12.3221 0 12.6082 0.136431 12.7973 0.375776C14.006 1.90563 18.5473 7.68266 19.8591 9.76898C19.9539 9.91962 20 10.0924 20 10.2704Z" fill="#121E1E"/>
<path d="M19 0H16.0188C15.2029 0 14.7304 0.924361 15.2082 1.58566L18.6421 6.33806C19.0682 6.92777 20 6.62636 20 5.89881V1C20 0.447715 19.5523 0 19 0Z" fill="#121E1E"/>
</g>
</svg>
